HIERARCHY
ROOT Hips
{
	OFFSET 0.000000 100.481300 0.000000
	CHANNELS 6 Xposition Yposition Zposition Xrotation Yrotation Zrotation
	JOINT Spine
	{
		OFFSET -0.279200 12.230698 -2.892100
		CHANNELS 3 Xrotation Yrotation Zrotation
		JOINT Spine1
		{
			OFFSET -0.325700 14.269203 -3.374200
			CHANNELS 3 Xrotation Yrotation Zrotation
			JOINT Spine2
			{
				OFFSET -0.372300 16.307602 -0.352600
				CHANNELS 3 Xrotation Yrotation Zrotation
				JOINT Neck
				{
					OFFSET -0.418800 17.814194 8.416900
					CHANNELS 3 Xrotation Yrotation Zrotation
					JOINT Head
					{
						OFFSET 0.000000 7.031097 3.806800
						CHANNELS 3 Xrotation Yrotation Zrotation
						JOINT HeadTop_End
						{
							OFFSET 0.000000 24.646606 12.978600
							CHANNELS 3 Xrotation Yrotation Zrotation
							End Site
							{
								OFFSET 0.000000 27.854965 0.000000
							}
						}
					}
				}
				JOINT LeftShoulder
				{
					OFFSET 16.952999 14.495407 -7.737500
					CHANNELS 3 Xrotation Yrotation Zrotation
					JOINT LeftArm
					{
						OFFSET 9.308998 -2.777710 0.208600
						CHANNELS 3 Xrotation Yrotation Zrotation
						JOINT LeftForeArm
						{
							OFFSET 29.972298 0.000000 0.000000
							CHANNELS 3 Xrotation Yrotation Zrotation
							JOINT LeftHand
							{
								OFFSET 26.026505 0.000000 0.000000
								CHANNELS 3 Xrotation Yrotation Zrotation
								JOINT LeftHandThumb1
								{
									OFFSET 12.240501 -7.147949 9.207150
									CHANNELS 3 Xrotation Yrotation Zrotation
									JOINT LeftHandThumb2
									{
										OFFSET 4.138618 -2.389435 2.389433
										CHANNELS 3 Xrotation Yrotation Zrotation
										JOINT LeftHandThumb3
										{
											OFFSET 2.726913 -1.574387 1.574386
											CHANNELS 3 Xrotation Yrotation Zrotation
											JOINT LeftHandThumb4
											{
												OFFSET 3.941010 -2.275345 2.275342
												CHANNELS 3 Xrotation Yrotation Zrotation
												End Site
												{
													OFFSET -0.005798 5.087799 0.009903
												}
											}
										}
									}
								}
								JOINT LeftHandIndex1
								{
									OFFSET 24.424698 -1.985611 5.953459
									CHANNELS 3 Xrotation Yrotation Zrotation
									JOINT LeftHandIndex2
									{
										OFFSET 6.426697 0.000000 0.000000
										CHANNELS 3 Xrotation Yrotation Zrotation
										JOINT LeftHandIndex3
										{
											OFFSET 5.337898 0.000000 0.000000
											CHANNELS 3 Xrotation Yrotation Zrotation
											JOINT LeftHandIndex4
											{
												OFFSET 4.409401 0.000000 0.000000
												CHANNELS 3 Xrotation Yrotation Zrotation
												End Site
												{
													OFFSET 0.000000 4.409363 0.014373
												}
											}
										}
									}
								}
								JOINT LeftHandMiddle1
								{
									OFFSET 23.810104 0.000000 0.000000
									CHANNELS 3 Xrotation Yrotation Zrotation
									JOINT LeftHandMiddle2
									{
										OFFSET 7.176498 0.000000 0.000000
										CHANNELS 3 Xrotation Yrotation Zrotation
										JOINT LeftHandMiddle3
										{
											OFFSET 6.774902 0.000000 0.000000
											CHANNELS 3 Xrotation Yrotation Zrotation
											JOINT LeftHandMiddle4
											{
												OFFSET 5.403328 0.000000 0.000000
												CHANNELS 3 Xrotation Yrotation Zrotation
												End Site
												{
													OFFSET -0.027702 5.403244 0.017414
												}
											}
										}
									}
								}
								JOINT LeftHandRing1
								{
									OFFSET 22.908401 -0.839279 -6.020567
									CHANNELS 3 Xrotation Yrotation Zrotation
									JOINT LeftHandRing2
									{
										OFFSET 6.337502 0.000000 0.000000
										CHANNELS 3 Xrotation Yrotation Zrotation
										JOINT LeftHandRing3
										{
											OFFSET 5.779297 0.000000 0.000000
											CHANNELS 3 Xrotation Yrotation Zrotation
											JOINT LeftHandRing4
											{
												OFFSET 4.965698 0.000000 0.000000
												CHANNELS 3 Xrotation Yrotation Zrotation
												End Site
												{
													OFFSET 0.000000 4.965668 0.016186
												}
											}
										}
									}
								}
								JOINT LeftHandPinky1
								{
									OFFSET 20.037003 -1.530319 -10.950146
									CHANNELS 3 Xrotation Yrotation Zrotation
									JOINT LeftHandPinky2
									{
										OFFSET 5.254700 0.000000 0.000000
										CHANNELS 3 Xrotation Yrotation Zrotation
										JOINT LeftHandPinky3
										{
											OFFSET 4.810204 0.000000 0.000000
											CHANNELS 3 Xrotation Yrotation Zrotation
											JOINT LeftHandPinky4
											{
												OFFSET 3.647202 0.000000 0.000000
												CHANNELS 3 Xrotation Yrotation Zrotation
												End Site
												{
													OFFSET 0.000000 3.647186 0.011889
												}
											}
										}
									}
								}
							}
						}
					}
				}
				JOINT RightShoulder
				{
					OFFSET -15.141001 14.495407 -7.737500
					CHANNELS 3 Xrotation Yrotation Zrotation
					JOINT RightArm
					{
						OFFSET -9.308998 -2.777710 0.208500
						CHANNELS 3 Xrotation Yrotation Zrotation
						JOINT RightForeArm
						{
							OFFSET -29.972300 0.000000 0.000000
							CHANNELS 3 Xrotation Yrotation Zrotation
							JOINT RightHand
							{
								OFFSET -26.026505 0.000000 0.000000
								CHANNELS 3 Xrotation Yrotation Zrotation
								JOINT RightHandThumb1
								{
									OFFSET -12.240601 -7.148026 9.207092
									CHANNELS 3 Xrotation Yrotation Zrotation
									JOINT RightHandThumb2
									{
										OFFSET -4.138618 -2.389435 2.389433
										CHANNELS 3 Xrotation Yrotation Zrotation
										JOINT RightHandThumb3
										{
											OFFSET -2.726974 -1.574417 1.574421
											CHANNELS 3 Xrotation Yrotation Zrotation
											JOINT RightHandThumb4
											{
												OFFSET -3.941010 -2.275345 2.275343
												CHANNELS 3 Xrotation Yrotation Zrotation
												End Site
												{
													OFFSET 0.005814 5.087799 0.009927
												}
											}
										}
									}
								}
								JOINT RightHandIndex1
								{
									OFFSET -24.424698 -1.985657 5.953444
									CHANNELS 3 Xrotation Yrotation Zrotation
									JOINT RightHandIndex2
									{
										OFFSET -6.426697 0.000000 0.000000
										CHANNELS 3 Xrotation Yrotation Zrotation
										JOINT RightHandIndex3
										{
											OFFSET -5.337898 0.000000 0.000000
											CHANNELS 3 Xrotation Yrotation Zrotation
											JOINT RightHandIndex4
											{
												OFFSET -4.409401 0.000000 0.000000
												CHANNELS 3 Xrotation Yrotation Zrotation
												End Site
												{
													OFFSET 0.000000 4.409363 0.014408
												}
											}
										}
									}
								}
								JOINT RightHandMiddle1
								{
									OFFSET -23.810097 0.000000 0.000000
									CHANNELS 3 Xrotation Yrotation Zrotation
									JOINT RightHandMiddle2
									{
										OFFSET -7.176498 0.000000 0.000000
										CHANNELS 3 Xrotation Yrotation Zrotation
										JOINT RightHandMiddle3
										{
											OFFSET -6.774902 0.000000 0.000000
											CHANNELS 3 Xrotation Yrotation Zrotation
											JOINT RightHandMiddle4
											{
												OFFSET -5.403328 0.000000 0.000000
												CHANNELS 3 Xrotation Yrotation Zrotation
												End Site
												{
													OFFSET 0.027702 5.403244 0.017457
												}
											}
										}
									}
								}
								JOINT RightHandRing1
								{
									OFFSET -22.908302 -0.839325 -6.020576
									CHANNELS 3 Xrotation Yrotation Zrotation
									JOINT RightHandRing2
									{
										OFFSET -6.337502 0.000000 0.000000
										CHANNELS 3 Xrotation Yrotation Zrotation
										JOINT RightHandRing3
										{
											OFFSET -5.779297 0.000000 0.000000
											CHANNELS 3 Xrotation Yrotation Zrotation
											JOINT RightHandRing4
											{
												OFFSET -4.965698 0.000000 0.000000
												CHANNELS 3 Xrotation Yrotation Zrotation
												End Site
												{
													OFFSET 0.000000 4.965668 0.016226
												}
											}
										}
									}
								}
								JOINT RightHandPinky1
								{
									OFFSET -20.037003 -1.530334 -10.950259
									CHANNELS 3 Xrotation Yrotation Zrotation
									JOINT RightHandPinky2
									{
										OFFSET -5.254700 0.000000 0.000000
										CHANNELS 3 Xrotation Yrotation Zrotation
										JOINT RightHandPinky3
										{
											OFFSET -4.810204 0.000000 0.000000
											CHANNELS 3 Xrotation Yrotation Zrotation
											JOINT RightHandPinky4
											{
												OFFSET -3.647202 0.000000 0.000000
												CHANNELS 3 Xrotation Yrotation Zrotation
												End Site
												{
													OFFSET 0.000000 3.647186 0.011917
												}
											}
										}
									}
								}
							}
						}
					}
				}
			}
		}
	}
	JOINT LeftUpLeg
	{
		OFFSET 15.427100 -6.655098 0.678600
		CHANNELS 3 Xrotation Yrotation Zrotation
		JOINT LeftLeg
		{
			OFFSET 4.081073 -39.591068 13.024000
			CHANNELS 3 Xrotation Yrotation Zrotation
			JOINT LeftFoot
			{
				OFFSET -4.081074 -37.707932 -15.979700
				CHANNELS 3 Xrotation Yrotation Zrotation
				JOINT LeftToeBase
				{
					OFFSET 5.346399 -15.068900 20.645000
					CHANNELS 3 Xrotation Yrotation Zrotation
					JOINT LeftToe_End
					{
						OFFSET 2.754700 0.931300 11.300900
						CHANNELS 3 Xrotation Yrotation Zrotation
						End Site
						{
							OFFSET 0.000000 11.669021 0.000000
						}
					}
				}
			}
		}
	}
	JOINT RightUpLeg
	{
		OFFSET -15.569500 -6.655098 0.678600
		CHANNELS 3 Xrotation Yrotation Zrotation
		JOINT RightLeg
		{
			OFFSET -4.081825 -39.591045 13.023800
			CHANNELS 3 Xrotation Yrotation Zrotation
			JOINT RightFoot
			{
				OFFSET 4.081824 -37.707954 -15.979600
				CHANNELS 3 Xrotation Yrotation Zrotation
				JOINT RightToeBase
				{
					OFFSET -5.346400 -15.068900 20.645000
					CHANNELS 3 Xrotation Yrotation Zrotation
					JOINT RightToe_End
					{
						OFFSET -2.754700 0.931300 11.300900
						CHANNELS 3 Xrotation Yrotation Zrotation
						End Site
						{
							OFFSET 0.000000 11.669021 0.000000
						}
					}
				}
			}
		}
	}
}
MOTION
Frames: 6
Frame Time: 0.033333
-40.200691 87.976204 -23.009596 1.624741 -6.715868 -6.427616 21.331125 -2.821953 -0.383895 1.328650 -0.465704 0.807317 1.336586 -0.437645 0.829018 6.606619 -0.284834 -2.275790 -26.270156 -18.431523 -1.767071 0.000001 0.000001 -0.000000 -1.422469 -24.539275 -20.310819 18.198795 9.041322 -41.929309 -0.000044 -110.054824 -0.000045 -13.283270 -20.769263 -39.384585 -7.234541 -7.106169 2.652045 20.911355 45.849837 -9.680722 -6.436834 2.347003 12.984134 -0.000001 -0.000000 0.000000 0.246926 4.271148 -30.580656 0.269452 1.757975 -17.427796 0.269476 1.757986 -17.427801 0.000000 0.000000 -0.000000 2.005437 7.489060 -27.605856 0.526702 2.429628 -24.459485 0.526699 2.429624 -24.459473 0.000001 0.000000 -0.000000 2.142746 7.144768 -35.323081 0.900750 3.123029 -32.169487 0.900724 3.123032 -32.169494 -0.000000 -0.000000 0.000000 7.126695 14.425460 -34.204378 0.889777 3.105581 -31.967973 0.868052 3.070540 -31.564661 -0.000001 -0.000000 -0.000000 0.437580 21.225875 10.630335 10.396058 -2.871343 58.265298 -0.000090 95.992524 0.000116 14.285859 17.763603 14.533386 -7.266981 2.722104 -9.112952 7.547109 -20.162251 -3.241307 -1.722092 -14.695283 -15.346863 -0.000001 0.000002 0.000002 0.353088 2.262728 -3.810698 0.612352 -2.310308 29.686229 0.612324 -2.310311 29.686236 0.000000 0.000001 0.000000 0.313182 -4.858370 6.458104 0.576693 -2.246647 28.789234 0.576392 -2.246100 28.781724 0.000002 -0.000001 -0.000001 1.010797 -6.722698 13.817920 0.748587 -2.534242 32.909508 0.747509 -2.532522 32.884359 0.000001 0.000001 -0.000000 0.600682 -5.051225 14.069903 0.678317 -2.422243 31.283646 0.676826 -2.419818 31.248734 0.000001 0.000002 0.000001 -15.046466 -6.303778 24.483901 45.436085 4.805416 -0.338172 -10.971508 3.766472 -14.106078 -15.864369 0.000017 -0.044031 0.000000 -0.000000 0.000000 -1.401871 -4.499148 -10.733232 28.124159 9.710821 0.791119 -15.356132 9.902744 9.835434 -17.298567 0.000001 -0.000004 0.000000 0.000000 0.000000 
-42.476860 85.571213 -22.956654 -1.117186 -11.977565 -6.694670 23.279470 -1.982749 -1.152593 1.670146 -0.207215 0.425239 1.674612 -0.185752 0.439529 6.304675 0.195888 -3.478711 -26.887639 -15.903068 -2.031132 -0.000000 0.000001 -0.000000 -1.092098 -21.617528 -19.651730 15.249166 9.076825 -41.916765 0.000826 -93.111755 0.000795 -5.434849 -21.490497 -27.340545 -7.263033 -7.123576 2.606141 20.883778 45.812903 -9.658346 -6.439516 2.331100 12.980103 0.000001 0.000000 0.000000 0.220311 4.227718 -30.617569 0.267941 1.753064 -17.377514 0.267919 1.753060 -17.377434 -0.000000 -0.000000 0.000001 1.974349 7.447014 -27.438210 0.526283 2.428689 -24.449393 0.526272 2.428700 -24.449405 -0.000001 0.000000 -0.000000 2.138220 7.146217 -35.171895 0.901875 3.124864 -32.190699 0.901872 3.124855 -32.190688 0.000001 0.000000 -0.000001 7.064332 14.402637 -33.994924 0.881880 3.092911 -31.821896 0.860417 3.058133 -31.422251 -0.000001 -0.000000 -0.000000 0.355119 23.067822 10.460497 7.812310 -2.718255 58.725434 0.000218 94.275919 -0.000220 17.872932 16.754321 12.165177 -7.365013 2.809995 -9.062327 7.632086 -20.325685 -3.210201 -1.725482 -14.669291 -15.341740 0.000002 -0.000003 0.000002 0.350471 2.304789 -3.734713 0.610704 -2.307436 29.645548 0.610709 -2.307415 29.645425 0.000000 0.000000 -0.000000 0.307762 -4.813624 6.452662 0.579786 -2.252265 28.868040 0.579477 -2.251726 28.860633 -0.000001 0.000001 -0.000000 1.017408 -6.752804 13.802772 0.752706 -2.540542 33.002019 0.751601 -2.538844 32.977034 0.000002 -0.000000 -0.000001 0.611385 -5.101300 14.006031 0.672914 -2.413390 31.156178 0.671473 -2.410975 31.121603 -0.000001 0.000002 -0.000001 -19.715261 -8.031116 24.452514 56.367335 2.379382 -1.816510 -3.956978 0.957692 -10.049764 -17.200148 0.482109 -7.717709 0.000000 -0.000000 0.000000 -3.016590 -4.053467 -11.178305 33.895879 10.737576 1.017960 -19.258219 14.011847 8.034852 -14.651253 0.000001 0.000001 -0.000000 0.000000 0.000000 
-44.877312 85.129929 -21.635967 -2.481959 -17.578841 -6.896994 22.972416 -0.689581 -1.460556 1.735982 0.145579 0.007975 1.736034 0.150407 0.010208 6.341971 0.637305 -4.461957 -26.442097 -13.102566 -2.520062 0.000000 0.000002 0.000000 -0.121031 -16.444573 -16.778011 9.035830 5.275820 -46.656933 0.000045 -67.271851 0.000033 11.807518 -20.094435 -18.144507 -7.398006 -7.253996 2.502317 20.679055 45.538405 -9.491221 -6.439043 2.333934 12.980807 -0.000000 0.000000 -0.000001 0.158988 4.111149 -30.351616 0.265932 1.746648 -17.311772 0.265926 1.746626 -17.311673 0.000000 -0.000003 -0.000002 1.865203 7.290400 -26.900043 0.524993 2.425905 -24.419504 0.525030 2.425938 -24.419822 -0.000002 0.000001 0.000000 2.136475 7.161274 -34.840839 0.903614 3.127659 -32.222865 0.903629 3.127636 -32.222824 -0.000003 -0.000000 0.000000 6.972519 14.394120 -33.606792 0.861636 3.060102 -31.444753 0.840776 3.025774 -31.051782 0.000001 0.000000 -0.000001 0.384695 24.276104 9.975492 6.933518 -1.167543 57.901624 0.000484 95.925431 -0.000501 14.392286 16.496220 12.516753 -7.586935 2.981714 -8.954883 7.857733 -20.757473 -3.127403 -1.739567 -14.600429 -15.327668 -0.000000 0.000001 0.000002 0.331479 2.470045 -3.338651 0.606563 -2.300117 29.542125 0.606554 -2.300110 29.542269 -0.000000 -0.000000 0.000000 0.294287 -4.684530 6.497639 0.587728 -2.266579 29.069391 0.587421 -2.266070 29.062151 -0.000001 -0.000001 0.000000 1.017333 -6.768550 13.738265 0.763503 -2.557058 33.244542 0.762403 -2.555419 33.220251 -0.000001 0.000000 -0.000002 0.665380 -5.331276 13.891418 0.657439 -2.387606 30.786446 0.656033 -2.385250 30.752534 0.000000 -0.000002 -0.000002 -24.308623 -6.498539 21.222240 57.477572 -7.191070 -6.452228 5.018756 -4.945752 -4.005410 -36.577142 0.289467 -0.736743 -0.000000 -0.000000 -0.000000 -4.444698 -4.342615 -11.473484 36.778485 10.228053 0.494982 -19.489759 20.520349 6.876303 -15.570726 -0.000000 -0.000001 -0.000000 0.000000 -0.000000 
-48.162624 86.826996 -19.579634 -3.440518 -22.415340 -7.294672 22.187680 0.575241 -1.722996 1.660730 0.459463 -0.223760 1.658608 0.453754 -0.231611 6.350937 1.086925 -4.974221 -25.780706 -10.532075 -2.281153 -0.000000 -0.000001 0.000001 0.489946 -11.967344 -13.242637 0.955698 8.268005 -53.134125 0.000006 -46.304714 0.000012 36.945535 -19.946671 -14.832219 -7.627913 -7.482055 2.339884 20.396381 45.161071 -9.265187 -6.436162 2.350055 12.983369 0.000000 0.000000 -0.000000 0.095001 3.977730 -29.896363 0.264679 1.742630 -17.270881 0.264667 1.742665 -17.271047 -0.000000 0.000000 -0.000001 1.743838 7.097846 -26.412365 0.522724 2.420860 -24.365329 0.522735 2.420908 -24.365793 -0.000001 -0.000000 -0.000001 2.107808 7.144326 -34.394862 0.906327 3.131909 -32.272080 0.906335 3.131917 -32.272381 -0.000001 0.000000 0.000000 6.788408 14.336890 -32.941176 0.828913 3.006001 -30.826194 0.809104 2.972602 -30.446511 -0.000001 0.000000 -0.000000 0.540798 24.137894 9.418647 5.990558 2.132972 56.516168 0.000172 98.135215 -0.000153 11.194120 16.654870 12.643998 -8.025576 3.460283 -8.962655 8.090676 -21.164842 -3.009776 -1.839154 -14.363642 -15.316382 0.000002 0.000001 0.000001 0.312670 2.648036 -2.965505 0.598497 -2.285897 29.341273 0.598505 -2.285847 29.340775 -0.000000 -0.000002 -0.000000 0.282412 -4.574334 6.528893 0.602978 -2.293769 29.452599 0.602660 -2.293285 29.445594 -0.000000 -0.000002 -0.000000 1.013597 -6.746829 13.765403 0.783344 -2.587067 33.686879 0.782313 -2.585519 33.663895 -0.000002 0.000002 -0.000001 0.747059 -5.659554 13.875312 0.626013 -2.334098 30.023562 0.624666 -2.331794 29.990862 0.000000 -0.000004 -0.000001 -26.786110 -3.628525 18.409112 55.887511 -8.923675 -10.049191 3.900109 -14.682337 -3.107580 -26.621793 -1.619577 7.577353 -0.000000 -0.000002 0.000000 -3.710193 -4.618249 -9.790661 36.437201 8.931688 -0.742857 -16.270233 26.332232 4.446433 -18.012426 0.003743 -0.350264 -0.000000 -0.000000 -0.000000 
-51.661552 88.730614 -17.714708 -4.286429 -27.220761 -7.782867 21.317891 2.119100 -3.113221 1.464585 0.903951 -0.077666 1.458401 0.907651 -0.101405 6.223414 1.578529 -5.268313 -24.361133 -8.340189 -1.049333 -0.000000 -0.000000 -0.000001 0.532524 -8.469257 -10.302177 -6.895426 15.185348 -56.027806 0.000003 -29.895192 0.000004 56.565929 -21.111353 -15.353603 -8.411930 -8.351435 2.020530 19.316847 43.697416 -8.397039 -6.413502 2.464272 12.976969 -0.000001 -0.000001 -0.000002 -0.105631 3.557149 -28.844384 0.259125 1.724699 -17.087438 0.259108 1.724624 -17.086714 0.000001 -0.000000 0.000002 1.538225 6.766746 -25.424606 0.518366 2.411239 -24.262176 0.518410 2.411329 -24.263122 -0.000000 0.000000 0.000001 2.039789 7.089321 -33.583460 0.876954 3.084975 -31.730501 0.876989 3.085024 -31.731256 -0.000000 -0.000000 -0.000000 6.827454 14.706480 -32.033362 0.780735 2.923891 -29.895137 0.761099 2.889495 -29.507541 -0.000000 0.000000 -0.000000 0.675649 24.114707 9.097123 4.826887 4.242788 54.745937 -0.000003 101.731850 -0.000008 9.436994 15.867002 12.240383 -8.859160 4.587188 -9.147816 7.639830 -20.052445 -2.959322 -1.996023 -13.990144 -15.298188 0.000003 -0.000000 0.000001 0.350544 3.229840 -3.005930 0.582749 -2.257627 28.943425 0.582831 -2.257763 28.945396 -0.000001 0.000000 0.000001 0.222403 -4.106377 6.293398 0.608010 -2.302684 29.578349 0.607754 -2.302212 29.571837 -0.000000 0.000002 -0.000000 0.854421 -6.135943 13.634057 0.776781 -2.577209 33.541307 0.775875 -2.575860 33.521527 -0.000001 -0.000001 0.000003 1.043480 -7.109067 12.887776 0.554229 -2.205360 28.211504 0.552740 -2.202537 28.172464 0.000000 0.000002 0.000000 -29.136617 0.275123 14.481907 51.520267 -8.661207 -9.957799 4.480427 -14.222324 -8.576850 -20.961647 -0.589647 4.505040 0.000000 0.000003 -0.000000 -2.625196 -5.747659 -8.530329 35.246365 7.779042 -1.289266 -12.022403 31.379296 1.407670 -20.760346 0.065858 -0.776909 0.000000 -0.000000 -0.000000 
-55.070152 91.333176 -16.084522 -4.816630 -32.454405 -8.046046 19.688632 4.093828 -4.271519 1.335845 1.461267 -0.131032 1.324792 1.462209 -0.171218 5.960091 2.020420 -5.448598 -22.313181 -6.056232 0.252249 0.000000 -0.000001 -0.000002 0.474961 -6.390807 -9.038634 -11.848279 24.749366 -54.168096 0.000001 -19.870665 0.000001 53.541026 -15.370226 -20.358694 -9.224301 -9.085086 1.369514 18.339860 42.287542 -7.622611 -6.394363 2.501049 12.975456 -0.000001 -0.000001 -0.000001 -0.312237 3.059555 -27.408963 0.242045 1.668149 -16.510545 0.241994 1.667993 -16.508794 -0.000001 0.000001 -0.000001 1.198966 6.135442 -24.128833 0.513339 2.400058 -24.142234 0.513436 2.400265 -24.144493 0.000001 0.000001 -0.000001 1.882929 6.926386 -32.197440 0.808998 2.972411 -30.444325 0.809077 2.972556 -30.445937 -0.000000 -0.000000 -0.000001 6.839631 15.187055 -30.774657 0.723584 2.822254 -28.754717 0.704132 2.786569 -28.357200 -0.000001 -0.000001 -0.000001 0.667742 24.525193 9.371226 2.833034 5.926089 53.134357 0.000076 104.395883 -0.000087 7.910507 14.532694 10.554608 -10.212158 6.181862 -8.614610 7.261254 -19.047552 -2.887328 -2.242345 -13.401913 -15.268248 -0.000000 -0.000001 0.000001 0.464090 3.739854 -3.835088 0.558675 -2.213617 28.326837 0.558779 -2.213776 28.329121 0.000000 -0.000001 -0.000001 0.153107 -3.604884 5.404398 0.586238 -2.263908 29.031798 0.585992 -2.263469 29.025698 -0.000001 0.000002 -0.000000 0.784933 -6.059854 12.617396 0.764612 -2.558729 33.269216 0.763786 -2.557501 33.251089 -0.000001 0.000003 -0.000000 0.996994 -7.470122 11.176318 0.480625 -2.062343 26.234598 0.479296 -2.059621 26.197465 -0.000000 -0.000003 0.000000 -29.428615 3.856583 10.085662 43.315936 -8.260650 -9.543717 5.058865 -6.111925 -12.053774 -12.887167 -0.010941 0.614077 0.000003 -0.000001 0.000001 -2.067279 -7.173728 -9.309387 32.532191 8.007735 0.458872 -7.232968 31.509865 4.396781 -20.477271 0.652243 -4.955799 -0.000000 -0.000000 -0.000000 
